<svg width="226" height="229" viewBox="0 0 226 229" fill="none" xmlns="http://www.w3.org/2000/svg">
<g clip-path="url(#clip0)">
<path d="M52.9688 114.501C52.9688 103.155 56.0537 92.5264 61.4133 83.4258V44.8232H23.3164C8.19603 64.7212 0 88.9715 0 114.501C0 140.03 8.19603 164.28 23.3164 184.178H61.4133V145.575C56.0537 136.475 52.9688 125.846 52.9688 114.501V114.501Z" fill="#FBBD00"/>
<path d="M113 175.328L86.5156 202.164L113 229C138.195 229 162.127 220.695 181.764 205.374V166.812H143.708C134.648 172.263 124.115 175.328 113 175.328V175.328Z" fill="#0F9D58"/>
<path d="M61.4133 145.575L23.3164 184.178C26.31 188.117 29.5698 191.89 33.0971 195.465C54.44 217.09 82.8166 229.001 113 229.001V175.329C91.0957 175.329 71.8976 163.378 61.4133 145.575Z" fill="#31AA52"/>
<path d="M226 114.5C226 107.533 225.378 100.554 224.15 93.7568L223.156 88.2559H113V141.928H166.61C161.404 152.421 153.399 160.982 143.708 166.813L181.764 205.374C185.652 202.341 189.375 199.038 192.903 195.464C214.246 173.837 226 145.084 226 114.5V114.5Z" fill="#3C79E6"/>
<path d="M155.449 71.4878L160.13 76.2315L197.585 38.2801L192.903 33.5364C171.56 11.9102 143.184 0 113 0L86.5156 26.8359L113 53.6719C129.035 53.6719 144.11 59.9989 155.449 71.4878Z" fill="#CF2D48"/>
<path d="M113 53.6719V0C82.8171 0 54.4404 11.9102 33.0971 33.536C29.5698 37.1101 26.31 40.8828 23.3164 44.8227L61.4133 83.4253C71.898 65.6228 91.0961 53.6719 113 53.6719V53.6719Z" fill="#EB4132"/>
</g>
<defs>
<clipPath id="clip0">
<rect width="226" height="229" fill="white"/>
</clipPath>
</defs>
</svg>
